<mxfile host="drawio-plugin" modified="2024-03-05T18:44:45.025Z" agent="5.0 (Windows NT 10.0; Win64; x64) AppleWebKit/537.36 (KHTML, like Gecko) Chrome/111.0.0.0 Safari/537.36" etag="SOEjTvILmPmqiqeDUzw5" version="20.5.3" type="embed"><diagram name="Страница — 1" id="iVpCG7FMlawMoxD5orLH"><mxGraphModel dx="843" dy="632" grid="1" gridSize="10" guides="1" tooltips="1" connect="1" arrows="1" fold="1" page="1" pageScale="1" pageWidth="827" pageHeight="1169" math="0" shadow="0"><root><mxCell id="0"/><mxCell id="1" parent="0"/><mxCell id="Z0x5usEhRj3-oJsWClzO-1" value="«abstract»&lt;br&gt;&lt;b&gt;Animal&lt;/b&gt;" style="html=1;whiteSpace=wrap;" parent="1" vertex="1"><mxGeometry x="540" y="280" width="130" height="30" as="geometry"/></mxCell><mxCell id="Z0x5usEhRj3-oJsWClzO-27" style="edgeStyle=orthogonalEdgeStyle;rounded=0;orthogonalLoop=1;jettySize=auto;html=1;exitX=1;exitY=0.75;exitDx=0;exitDy=0;entryX=0;entryY=0.5;entryDx=0;entryDy=0;" parent="1" source="Z0x5usEhRj3-oJsWClzO-2" target="Z0x5usEhRj3-oJsWClzO-1" edge="1"><mxGeometry relative="1" as="geometry"><Array as="points"><mxPoint x="500" y="298"/><mxPoint x="500" y="295"/></Array></mxGeometry></mxCell><mxCell id="Z0x5usEhRj3-oJsWClzO-2" value="&lt;p style=&quot;margin:0px;margin-top:4px;text-align:center;&quot;&gt;&lt;b&gt;AnimalFactory&lt;/b&gt;&lt;br&gt;&lt;/p&gt;&lt;hr size=&quot;1&quot; style=&quot;border-style:solid;&quot;&gt;&amp;nbsp;+&amp;nbsp;&lt;span style=&quot;background-color: initial;&quot;&gt;createAnimal(Enum):&amp;nbsp;&lt;/span&gt;Animal&amp;nbsp;&lt;div&gt;&lt;div style=&quot;height:2px;&quot;&gt;&lt;/div&gt;&lt;/div&gt;" style="verticalAlign=top;align=left;overflow=fill;html=1;whiteSpace=wrap;" parent="1" vertex="1"><mxGeometry x="260" y="260" width="240" height="50" as="geometry"/></mxCell><mxCell id="Z0x5usEhRj3-oJsWClzO-9" value="+ getSpecies(): String&amp;nbsp;" style="html=1;whiteSpace=wrap;" parent="1" vertex="1"><mxGeometry x="540" y="310" width="130" height="30" as="geometry"/></mxCell><mxCell id="Z0x5usEhRj3-oJsWClzO-10" style="edgeStyle=orthogonalEdgeStyle;rounded=0;orthogonalLoop=1;jettySize=auto;html=1;exitX=0.5;exitY=1;exitDx=0;exitDy=0;" parent="1" source="Z0x5usEhRj3-oJsWClzO-2" target="Z0x5usEhRj3-oJsWClzO-2" edge="1"><mxGeometry relative="1" as="geometry"/></mxCell><mxCell id="Z0x5usEhRj3-oJsWClzO-12" style="edgeStyle=orthogonalEdgeStyle;rounded=0;orthogonalLoop=1;jettySize=auto;html=1;exitX=0.5;exitY=1;exitDx=0;exitDy=0;" parent="1" source="Z0x5usEhRj3-oJsWClzO-1" target="Z0x5usEhRj3-oJsWClzO-1" edge="1"><mxGeometry relative="1" as="geometry"/></mxCell><mxCell id="Z0x5usEhRj3-oJsWClzO-19" style="edgeStyle=orthogonalEdgeStyle;rounded=0;orthogonalLoop=1;jettySize=auto;html=1;exitX=0.5;exitY=0;exitDx=0;exitDy=0;dashed=1;" parent="1" source="Z0x5usEhRj3-oJsWClzO-15" target="Z0x5usEhRj3-oJsWClzO-9" edge="1"><mxGeometry relative="1" as="geometry"/></mxCell><mxCell id="Z0x5usEhRj3-oJsWClzO-15" value="&lt;p style=&quot;margin:0px;margin-top:4px;text-align:center;&quot;&gt;&lt;b&gt;LandCreatures&lt;/b&gt;&lt;br&gt;&lt;/p&gt;&lt;hr size=&quot;1&quot; style=&quot;border-style:solid;&quot;&gt;&lt;div style=&quot;height:2px;&quot;&gt;&lt;span style=&quot;text-align: center;&quot;&gt;+ getSpecies(): String&amp;nbsp;&lt;/span&gt;&lt;/div&gt;" style="verticalAlign=top;align=left;overflow=fill;html=1;whiteSpace=wrap;" parent="1" vertex="1"><mxGeometry x="460" y="400" width="120" height="50" as="geometry"/></mxCell><mxCell id="Z0x5usEhRj3-oJsWClzO-20" style="edgeStyle=orthogonalEdgeStyle;rounded=0;orthogonalLoop=1;jettySize=auto;html=1;exitX=0.5;exitY=0;exitDx=0;exitDy=0;entryX=0.5;entryY=1;entryDx=0;entryDy=0;dashed=1;" parent="1" source="Z0x5usEhRj3-oJsWClzO-16" target="Z0x5usEhRj3-oJsWClzO-9" edge="1"><mxGeometry relative="1" as="geometry"><mxPoint x="679.9655172413793" y="370" as="targetPoint"/></mxGeometry></mxCell><mxCell id="Z0x5usEhRj3-oJsWClzO-16" value="&lt;p style=&quot;margin:0px;margin-top:4px;text-align:center;&quot;&gt;&lt;b&gt;SeaCreatures&lt;/b&gt;&lt;br&gt;&lt;/p&gt;&lt;hr size=&quot;1&quot; style=&quot;border-style:solid;&quot;&gt;&lt;div style=&quot;height:2px;&quot;&gt;&lt;span style=&quot;text-align: center;&quot;&gt;+ getSpecies(): String&amp;nbsp;&lt;/span&gt;&lt;/div&gt;" style="verticalAlign=top;align=left;overflow=fill;html=1;whiteSpace=wrap;" parent="1" vertex="1"><mxGeometry x="620" y="400" width="120" height="50" as="geometry"/></mxCell><mxCell id="Z0x5usEhRj3-oJsWClzO-25" style="edgeStyle=orthogonalEdgeStyle;rounded=0;orthogonalLoop=1;jettySize=auto;html=1;exitX=0.5;exitY=0;exitDx=0;exitDy=0;entryX=0;entryY=0.5;entryDx=0;entryDy=0;" parent="1" source="Z0x5usEhRj3-oJsWClzO-21" target="Z0x5usEhRj3-oJsWClzO-2" edge="1"><mxGeometry relative="1" as="geometry"/></mxCell><mxCell id="Z0x5usEhRj3-oJsWClzO-21" value="Species" style="swimlane;fontStyle=0;childLayout=stackLayout;horizontal=1;startSize=26;fillColor=none;horizontalStack=0;resizeParent=1;resizeParentMax=0;resizeLast=0;collapsible=1;marginBottom=0;whiteSpace=wrap;html=1;" parent="1" vertex="1"><mxGeometry x="160" y="360" width="100" height="78" as="geometry"/></mxCell><mxCell id="Z0x5usEhRj3-oJsWClzO-22" value="LAND" style="text;strokeColor=none;fillColor=none;align=left;verticalAlign=top;spacingLeft=4;spacingRight=4;overflow=hidden;rotatable=0;points=[[0,0.5],[1,0.5]];portConstraint=eastwest;whiteSpace=wrap;html=1;" parent="Z0x5usEhRj3-oJsWClzO-21" vertex="1"><mxGeometry y="26" width="100" height="26" as="geometry"/></mxCell><mxCell id="Z0x5usEhRj3-oJsWClzO-23" value="SEA" style="text;strokeColor=none;fillColor=none;align=left;verticalAlign=top;spacingLeft=4;spacingRight=4;overflow=hidden;rotatable=0;points=[[0,0.5],[1,0.5]];portConstraint=eastwest;whiteSpace=wrap;html=1;" parent="Z0x5usEhRj3-oJsWClzO-21" vertex="1"><mxGeometry y="52" width="100" height="26" as="geometry"/></mxCell></root></mxGraphModel></diagram></mxfile>